<svg width="26" height="26" viewBox="0 0 26 26" fill="none" xmlns="http://www.w3.org/2000/svg">
<path d="M15.0339 5.7179L14.4016 3.9C12.9789 3.9 12.9789 3.9 11.5562 3.9L10.9239 5.7179C10.3706 5.87598 9.81735 6.1131 9.34312 6.35022L7.52521 5.55982C6.57674 6.58734 6.57674 6.58734 5.54923 7.53581L6.41866 9.27467C6.1025 9.82795 5.86539 10.3812 5.70731 10.9345L3.8894 11.5668C3.8894 12.9895 3.8894 12.9895 3.8894 14.4122L5.70731 15.0445C5.86539 15.5978 6.1025 16.1511 6.33962 16.6253L5.47019 18.3642C6.4977 19.3917 6.4977 19.3917 7.52521 20.4192L9.26408 19.5498C9.73831 19.8659 10.2916 20.024 10.8449 20.1821L11.4772 22C12.8999 22 12.8999 22 14.3226 22L14.9549 20.1821C15.5082 20.024 16.0615 19.7869 16.5357 19.5498L18.2746 20.4192C19.3021 19.3917 19.3021 19.3917 20.3296 18.3642L19.4601 16.6253C19.7763 16.1511 19.9344 15.5978 20.0925 15.0445L21.9104 14.4122C21.9104 12.9895 21.9104 12.9895 21.9104 11.5668L20.0925 10.9345C19.9344 10.3812 19.6973 9.82795 19.4601 9.35371L20.3296 7.61485C19.3021 6.58734 19.3021 6.58734 18.2746 5.55982L16.5357 6.42926C16.1405 6.1131 15.5872 5.87598 15.0339 5.7179Z" stroke="#A9B041" stroke-width="1.5" stroke-miterlimit="10" stroke-linecap="round" stroke-linejoin="round"/>
<path d="M12.9789 16.5463C14.9432 16.5463 16.5357 14.9539 16.5357 12.9895C16.5357 11.0252 14.9432 9.43275 12.9789 9.43275C11.0145 9.43275 9.42212 11.0252 9.42212 12.9895C9.42212 14.9539 11.0145 16.5463 12.9789 16.5463Z" stroke="#A9B041" stroke-width="1.5" stroke-miterlimit="10" stroke-linecap="round" stroke-linejoin="round"/>
</svg>
