<svg width="29" height="30" viewBox="0 0 29 30" fill="none" xmlns="http://www.w3.org/2000/svg">
<rect width="30" height="30" fill="white"/>
<path d="M13.3143 22.2439C13.3143 20.8834 14.3632 19.7805 15.6571 19.7805C16.9511 19.7805 18 20.8834 18 22.2439C18 23.6044 16.9511 24.7073 15.6571 24.7073C15.0358 24.7073 14.4399 24.4478 14.0005 23.9858C13.5611 23.5238 13.3143 22.8972 13.3143 22.2439ZM13.3143 14.8537C13.3143 13.4932 14.3632 12.3902 15.6571 12.3902C16.9511 12.3902 18 13.4932 18 14.8537C18 16.2142 16.9511 17.3171 15.6571 17.3171C15.0358 17.3171 14.4399 17.0575 14.0005 16.5956C13.5611 16.1336 13.3143 15.507 13.3143 14.8537ZM13.3143 7.46341C13.3143 6.10291 14.3632 5 15.6571 5C16.9511 5 18 6.10291 18 7.46341C18 8.82392 16.9511 9.92683 15.6571 9.92683C15.0358 9.92683 14.4399 9.66729 14.0005 9.20531C13.5611 8.74333 13.3143 8.11675 13.3143 7.46341Z" fill="#C68951"/>
</svg>
