<svg width="11" height="14" viewBox="0 0 11 14" fill="none" xmlns="http://www.w3.org/2000/svg">
<g clip-path="url(#clip0_362_2864)">
<path d="M1.20173 12.9855H4.33181C0.357723 9.01888 -0.0894308 6.0667 0.00558949 4.65655C0.184452 2.02902 2.5935 -0.0202626 5.5 2.72961e-05H5.56707C8.57419 0.0456795 10.9888 2.26235 11 4.99134C11 8.1667 8.29472 11.3522 6.65701 12.9855H9.78709C10.0945 12.9855 10.346 13.2138 10.346 13.4928C10.346 13.7718 10.0945 14 9.78709 14H1.20173C0.894309 14 0.642785 13.7718 0.642785 13.4928C0.642785 13.2138 0.894309 12.9855 1.20173 12.9855ZM5.5 6.04641C6.14278 6.04641 6.6626 5.57467 6.6626 4.99134C6.6626 4.408 6.14278 3.93626 5.5 3.93626C4.85722 3.93626 4.3374 4.408 4.3374 4.99134C4.34299 5.57467 4.85722 6.04134 5.5 6.04641Z" fill="#AEE295"/>
<path d="M5.50001 3.94135C4.85723 3.92613 4.32623 4.38265 4.30946 4.96599C4.29269 5.54932 4.79574 6.03121 5.43853 6.04642C5.60062 6.0515 5.75712 6.02613 5.90804 5.97034C5.91922 6.31019 5.9248 6.65005 5.9248 6.98483C5.9248 9.33846 5.65092 11.6819 5.11434 13.9848H1.20733C0.899914 13.9848 0.64839 13.7566 0.64839 13.4776C0.64839 13.1986 0.899914 12.9703 1.20733 12.9703H4.33741C0.363329 9.01889 -0.0838246 6.06671 0.0111957 4.66164C0.173289 2.16599 2.36434 0.172505 5.11434 0.0152588C5.42176 1.31888 5.63974 2.6428 5.77389 3.97178C5.67887 3.95149 5.58944 3.94135 5.50001 3.94135Z" fill="url(#paint0_linear_362_2864)"/>
<path d="M3.21954 4.99132C3.21954 3.85001 4.23682 2.92175 5.50003 2.92175C6.75765 2.92175 7.78052 3.84494 7.78052 4.99132C7.78052 6.13262 6.76324 7.06088 5.50003 7.06088C4.24241 7.05581 3.22513 6.13262 3.21954 4.99132ZM6.66263 4.99132C6.66263 4.40799 6.14281 3.93625 5.50003 3.93625C4.85725 3.93625 4.33743 4.40799 4.33743 4.99132C4.33743 5.57465 4.85725 6.04639 5.50003 6.04639C6.14281 6.04639 6.66263 5.57465 6.66263 4.99132Z" fill="#067C41"/>
<path d="M1.20171 12.9855H4.3318C0.368885 9.01888 -0.089448 6.0667 0.00557232 4.65655C0.184434 2.02902 2.59348 -0.0202626 5.49999 2.72961e-05H5.56706C8.57418 0.0456795 10.9888 2.26235 11 4.99134C11 8.1667 8.29471 11.3522 6.65701 12.9855H9.78709C10.0945 12.9855 10.346 13.2138 10.346 13.4928C10.346 13.7718 10.0945 14 9.78709 14H1.20171C0.894293 14 0.642768 13.7718 0.642768 13.4928C0.642768 13.2138 0.894293 12.9855 1.20171 12.9855ZM5.55589 1.01452H5.49999C3.19155 0.994231 1.26879 2.62249 1.12346 4.71742C0.933419 7.74062 3.907 11.0479 5.19257 12.3312C5.35467 12.4834 5.62296 12.4884 5.79064 12.3413C5.79623 12.3363 5.79623 12.3363 5.80182 12.3312C7.0315 11.1087 9.88211 7.94859 9.88211 4.99134C9.87652 2.81525 7.94817 1.05003 5.55589 1.01452Z" fill="#067C41"/>
</g>
<defs>
<linearGradient id="paint0_linear_362_2864" x1="5.92033" y1="6.99917" x2="-0.00271087" y2="6.99917" gradientUnits="userSpaceOnUse">
<stop stop-color="#DBFCCC"/>
<stop offset="1" stop-color="#C0E6AE"/>
</linearGradient>
<clipPath id="clip0_362_2864">
<rect width="11" height="14" fill="white" transform="matrix(-1 0 0 1 11 0)"/>
</clipPath>
</defs>
</svg>
