<svg width="14" height="14" viewBox="0 0 14 14" fill="none" xmlns="http://www.w3.org/2000/svg">
<path d="M1.74924 9.33333C2.6724 10.2578 3.90175 10.8128 5.20571 10.8937C6.50966 10.9746 7.7982 10.5759 8.82858 9.77266L12.3739 13.318C12.4996 13.4394 12.668 13.5066 12.8428 13.5051C13.0176 13.5036 13.1848 13.4335 13.3085 13.3099C13.4321 13.1863 13.5022 13.0191 13.5037 12.8443C13.5052 12.6695 13.438 12.5011 13.3166 12.3753L9.77124 8.83C10.6101 7.75344 11.0067 6.39743 10.8802 5.03851C10.7536 3.67959 10.1135 2.42013 9.09023 1.51697C8.06701 0.613821 6.7378 0.135007 5.37368 0.178184C4.00957 0.221362 2.7133 0.783277 1.74924 1.74933C1.25111 2.24721 0.85595 2.83836 0.586347 3.48901C0.316744 4.13965 0.177979 4.83704 0.177979 5.54133C0.177979 6.24562 0.316744 6.94301 0.586347 7.59365C0.85595 8.2443 1.25111 8.83545 1.74924 9.33333ZM2.69191 2.69333C3.35096 2.0343 4.21812 1.62416 5.14566 1.5328C6.0732 1.44143 7.00372 1.6745 7.77869 2.19228C8.55365 2.71006 9.12511 3.48053 9.39571 4.37241C9.66631 5.26429 9.6193 6.2224 9.26269 7.0835C8.90608 7.94461 8.26193 8.65543 7.43999 9.09486C6.61806 9.53428 5.66919 9.67513 4.75506 9.4934C3.84092 9.31167 3.01807 8.81861 2.42671 8.09822C1.83534 7.37783 1.51205 6.47469 1.51191 5.54267C1.51008 5.01305 1.61344 4.48834 1.81601 3.99899C2.01857 3.50963 2.31629 3.06538 2.69191 2.692V2.69333Z" fill="#A9B041"/>
</svg>
