<svg width="14" height="17" viewBox="0 0 14 17" fill="none" xmlns="http://www.w3.org/2000/svg">
<g clip-path="url(#clip0_381_2986)">
<path d="M13.7417 14.1423C13.7074 13.7963 12.721 13.6133 11.9648 13.5235C11.5852 14.1356 10.913 14.5182 9.78967 14.7212C10.5241 15.3067 10.8166 16.2215 11.1122 16.2515C11.4669 16.2881 11.4638 15.839 11.6661 15.6693C11.8715 15.4996 12.5187 15.7325 12.665 15.5961C12.8921 15.3865 12.665 15.0971 12.9046 14.7943C13.1473 14.4949 13.7883 14.6213 13.7417 14.1423Z" fill="#98DB7C"/>
<path d="M2.03207 13.5268C1.27901 13.6166 0.289458 13.7963 0.255228 14.1456C0.208551 14.6213 0.849582 14.4982 1.08919 14.801C1.3288 15.1037 1.09853 15.3931 1.3288 15.6027C1.47505 15.7391 2.12542 15.5062 2.32769 15.6759C2.53307 15.8456 2.52684 16.2947 2.88159 16.2581C3.17721 16.2282 3.46972 15.3133 4.20411 14.7278C3.08386 14.5182 2.41171 14.1389 2.03207 13.5268Z" fill="#98DB7C"/>
<path d="M13.0821 6.98964C13.7729 4.5777 11.7844 0.555592 10.0449 0.292774C8.94026 0.126434 8.36146 1.07457 8.36146 1.07457H5.63241C5.63241 1.07457 5.05362 0.126434 3.94893 0.292774C2.21565 0.555592 0.227211 4.5777 0.91492 6.98964C1.18876 7.94776 1.76133 8.63974 2.44904 9.13211C2.03828 10.0869 1.50616 11.5707 1.6742 12.5221C1.98538 14.2853 3.24877 14.9141 6.99849 14.9141C10.7482 14.9141 12.0116 14.2887 12.3228 12.5221C12.4908 11.5707 11.9587 10.0869 11.5479 9.13211C12.2357 8.63974 12.8082 7.95109 13.0821 6.98964Z" fill="#AEE295"/>
<path d="M12.4939 13.6C12.3165 13.57 12.136 13.5468 11.968 13.5268C11.5884 14.1389 10.9162 14.5215 9.79285 14.7244C10.0854 14.9573 10.3063 15.2434 10.4899 15.5062C11.6817 15.1736 12.2574 14.5681 12.4939 13.6Z" fill="#82D361"/>
<path d="M3.5101 15.5062C3.69059 15.2434 3.91464 14.9607 4.20715 14.7244C3.08379 14.5182 2.41475 14.1389 2.032 13.5268C1.86396 13.5468 1.68348 13.57 1.5061 13.6C1.7426 14.5681 2.31828 15.1736 3.5101 15.5062Z" fill="#82D361"/>
<path d="M6.9984 14.0192C3.26112 14.0192 1.9915 13.3971 1.67721 11.6438C1.63365 11.9632 1.62742 12.2626 1.6741 12.5254C1.98528 14.2886 3.24867 14.9174 6.9984 14.9174C10.7481 14.9174 12.0115 14.292 12.3227 12.5254C12.3694 12.2659 12.3631 11.9632 12.3196 11.6438C12.0053 13.3971 10.7357 14.0192 6.9984 14.0192Z" fill="#98DB7C"/>
<path d="M4.10754 12.2793C4.10754 12.2793 4.28803 13.8129 5.10643 15.493C5.10643 15.493 4.17289 16.1517 4.26625 16.4012C4.36271 16.6507 4.85126 16.3546 5.03175 16.4012C5.21223 16.4478 5.29003 16.7305 5.46118 16.7239C5.63233 16.7172 5.91239 16.4478 6.01819 16.4478C6.12399 16.4478 6.55031 16.7305 6.653 16.6707C6.80548 16.5842 6.51919 15.8356 6.24224 15.4996C6.24224 15.4996 6.4943 12.7949 6.4943 12.775" fill="#AEE295"/>
<path d="M9.88933 12.2793C9.88933 12.2793 9.70884 13.8129 8.89044 15.493C8.89044 15.493 9.82398 16.1517 9.73063 16.4012C9.63416 16.6507 9.14561 16.3546 8.96512 16.4012C8.78464 16.4478 8.70684 16.7305 8.53569 16.7239C8.36454 16.7172 8.08448 16.4478 7.97868 16.4478C7.87288 16.4478 7.44656 16.7305 7.34387 16.6707C7.19139 16.5842 7.47768 15.8356 7.75463 15.4996C7.75463 15.4996 7.50257 12.7949 7.50257 12.775" fill="#AEE295"/>
<path d="M13.9938 14.1356C13.9565 13.743 13.4586 13.4969 12.3508 13.3372C12.4472 13.1143 12.5188 12.8648 12.5686 12.5853C12.6339 12.216 12.609 11.7503 12.497 11.2047C12.469 11.0683 12.3445 10.9851 12.217 11.0151C12.0894 11.045 12.0116 11.1781 12.0396 11.3145C12.1392 11.7935 12.1609 12.1894 12.108 12.4922C11.9244 13.5268 11.4234 14.2387 9.56569 14.5315C10.0076 13.3139 10.1227 12.3724 10.1289 12.3225C10.1445 12.1861 10.0542 12.0597 9.92666 12.043C9.79908 12.0264 9.68083 12.1229 9.66527 12.2593C9.66216 12.2726 9.48168 13.773 8.68816 15.3998C8.63215 15.5129 8.66638 15.6526 8.76596 15.7225C9.01179 15.8955 9.24829 16.0984 9.38832 16.2481C9.36343 16.2415 9.33853 16.2348 9.31675 16.2282C9.17361 16.1883 9.03669 16.1517 8.91221 16.1816C8.75351 16.2215 8.65393 16.3413 8.58236 16.4311C8.5668 16.4511 8.54191 16.4777 8.52635 16.4977C8.47345 16.4777 8.37698 16.4145 8.32408 16.3779C8.1965 16.2947 8.09381 16.2249 7.97867 16.2249C7.88843 16.2249 7.8013 16.2648 7.63637 16.3446C7.6177 16.3546 7.59903 16.3646 7.57725 16.3746C7.6426 16.1683 7.77641 15.8722 7.92888 15.6892C7.97245 15.636 7.99112 15.5695 7.9849 15.4996C7.91644 14.771 7.74218 12.8748 7.73284 12.7749C7.72662 12.6452 7.62393 12.5421 7.49946 12.5421C7.37187 12.5421 7.26607 12.6552 7.26607 12.7916C7.26607 12.8049 7.26607 12.8215 7.43722 14.6845C7.29408 14.6879 7.14471 14.6879 6.99223 14.6879C6.83975 14.6879 6.69039 14.6879 6.54724 14.6845C6.71839 12.8215 6.71839 12.8049 6.71839 12.7916C6.71839 12.6552 6.61259 12.5421 6.48501 12.5421C6.36053 12.5421 6.25784 12.6452 6.25162 12.7749C6.2454 12.8748 6.06803 14.771 5.99957 15.4996C5.99334 15.5695 6.01512 15.636 6.05558 15.6892C6.20806 15.8722 6.33875 16.1683 6.40721 16.3746C6.38543 16.3646 6.36365 16.3546 6.34809 16.3446C6.18627 16.2648 6.09603 16.2249 6.00579 16.2249C5.89065 16.2249 5.79107 16.2914 5.66038 16.3779C5.60437 16.4145 5.5079 16.4777 5.45811 16.4977C5.44255 16.481 5.41766 16.4511 5.4021 16.4311C5.33053 16.3446 5.23095 16.2215 5.07225 16.1816C4.95089 16.1517 4.81397 16.1883 4.66771 16.2282C4.64904 16.2348 4.62415 16.2415 4.59614 16.2481C4.73617 16.0984 4.97578 15.8955 5.2185 15.7225C5.31808 15.6526 5.35231 15.5129 5.2963 15.3998C4.5059 13.7763 4.3223 12.2759 4.31919 12.2593C4.30363 12.1229 4.18538 12.0264 4.0578 12.043C3.93022 12.0597 3.83997 12.1861 3.85553 12.3225C3.86176 12.3724 3.97689 13.3139 4.41877 14.5315C3.02468 14.3186 2.11603 13.8562 1.87642 12.4922C1.85775 12.3857 1.84842 12.2659 1.84842 12.1329C1.84842 11.9965 1.74573 11.8834 1.61503 11.8834C1.48745 11.8834 1.38165 11.9931 1.38165 12.1329C1.38165 12.2959 1.39409 12.4489 1.41899 12.5853C1.46878 12.8648 1.54035 13.1143 1.63681 13.3372C0.529012 13.4969 0.0342353 13.743 -0.00621813 14.1356C-0.0528952 14.6247 0.342304 14.7544 0.578801 14.8309C0.703273 14.8708 0.830857 14.9141 0.883758 14.9806C0.949106 15.0638 0.952218 15.1337 0.952218 15.2634C0.952218 15.4098 0.95533 15.636 1.14826 15.8123C1.2914 15.9454 1.51234 15.9221 1.7644 15.8988C1.88265 15.8888 2.10047 15.8656 2.16271 15.8955C2.19694 15.9254 2.23117 16.002 2.26229 16.0718C2.34319 16.2481 2.48011 16.5342 2.81619 16.5342C2.83797 16.5342 2.85975 16.5342 2.88154 16.5309C3.12737 16.5043 3.28918 16.2614 3.51323 15.9188C3.69994 15.636 3.93022 15.2867 4.25073 15.0072C4.37209 15.0272 4.49656 15.0472 4.63037 15.0638C4.68016 15.1836 4.73617 15.3067 4.79219 15.4331C4.70505 15.4996 4.59614 15.5861 4.48723 15.6826C4.20094 15.9354 3.92399 16.2315 4.03602 16.5209C4.17294 16.8802 4.57125 16.7704 4.78596 16.7139C4.84509 16.6973 4.93222 16.674 4.96956 16.6706C4.99134 16.684 5.02868 16.7305 5.05358 16.7605C5.13137 16.8569 5.25273 17 5.44255 17C5.44878 17 5.45189 17 5.45811 17C5.6137 16.9933 5.76929 16.8902 5.90932 16.8004C5.94044 16.7804 5.98401 16.7505 6.01512 16.7339C6.05558 16.7505 6.11159 16.7804 6.15516 16.8004C6.38854 16.9135 6.59392 17.0133 6.75885 16.9168C6.80552 16.8902 6.89265 16.8204 6.91444 16.6706C6.96422 16.3646 6.70595 15.7724 6.47567 15.4464C6.48501 15.3566 6.49123 15.2667 6.50057 15.1802C6.65927 15.1836 6.82419 15.1836 6.99223 15.1836C7.16027 15.1836 7.32519 15.1836 7.4839 15.1802C7.49323 15.2667 7.49946 15.3532 7.50879 15.4431C7.39988 15.5928 7.29408 15.7924 7.20695 16.002C7.12604 16.1982 7.0358 16.4744 7.07003 16.6673C7.09492 16.817 7.17894 16.8836 7.22562 16.9135C7.39054 17.01 7.59281 16.9102 7.82931 16.7971C7.87287 16.7771 7.92888 16.7472 7.96934 16.7305C8.00046 16.7472 8.04402 16.7771 8.07514 16.7971C8.21206 16.8869 8.36765 16.99 8.52635 16.9967C8.53257 16.9967 8.53569 16.9967 8.54191 16.9967C8.73484 16.9967 8.85309 16.8536 8.93089 16.7571C8.95578 16.7272 8.99623 16.6773 9.0149 16.6673C9.05225 16.6673 9.13938 16.6939 9.1985 16.7106C9.41321 16.7704 9.81153 16.8769 9.94845 16.5176C10.0574 16.2282 9.78041 15.9321 9.49723 15.6793C9.38832 15.5828 9.27941 15.4963 9.19228 15.4297C9.24829 15.3067 9.3043 15.1836 9.35409 15.0605C9.48479 15.0438 9.61237 15.0239 9.73373 15.0039C10.0542 15.2834 10.2814 15.6294 10.4712 15.9155C10.6953 16.2548 10.8571 16.501 11.1029 16.5276C11.1247 16.5309 11.1465 16.5309 11.1683 16.5309C11.5043 16.5309 11.6382 16.2448 11.7222 16.0685C11.7533 15.9986 11.7906 15.9221 11.8218 15.8922C11.884 15.8622 12.1018 15.8822 12.2201 15.8955C12.4721 15.9188 12.6931 15.9421 12.8362 15.809C13.0291 15.6327 13.0322 15.4065 13.0322 15.2601C13.0322 15.1303 13.0385 15.0571 13.1007 14.9773C13.1536 14.9108 13.2812 14.8708 13.4057 14.8276C13.6453 14.7544 14.0436 14.6247 13.9938 14.1356ZM3.14293 15.6294C3.04024 15.7824 2.90332 15.9953 2.83797 16.0319C2.79441 16.0352 2.77574 16.0252 2.69172 15.8456C2.6357 15.7292 2.57347 15.5961 2.45833 15.4963C2.27785 15.3466 2.0009 15.3732 1.73328 15.3998C1.64304 15.4098 1.50923 15.4231 1.45011 15.4131C1.43766 15.3898 1.43144 15.3566 1.43144 15.2568C1.43144 15.107 1.42832 14.8808 1.25406 14.6579C1.11403 14.4783 0.908652 14.4117 0.728168 14.3519C0.488559 14.2753 0.466776 14.2487 0.469888 14.2021C0.501006 14.1656 0.73128 13.956 1.90754 13.8063C2.04446 13.9992 2.20939 14.1656 2.40232 14.3119C2.73528 14.5614 3.15538 14.7511 3.69372 14.8908C3.46344 15.1436 3.28607 15.4131 3.14293 15.6294ZM13.275 14.3519C13.0945 14.4117 12.8891 14.4783 12.7491 14.6579C12.5748 14.8808 12.5717 15.107 12.5717 15.2568C12.5717 15.3566 12.5686 15.3931 12.553 15.4131C12.4939 15.4198 12.3601 15.4065 12.2699 15.3998C12.0022 15.3732 11.7253 15.3466 11.5448 15.4963C11.4266 15.5928 11.3643 15.7258 11.3114 15.8456C11.2274 16.0252 11.2087 16.0352 11.1652 16.0319C11.0998 15.9953 10.9629 15.7857 10.8602 15.6294C10.7171 15.4131 10.5397 15.1436 10.3094 14.8875C10.8478 14.7511 11.2678 14.5614 11.6008 14.3086C11.7937 14.1622 11.9587 13.9959 12.0956 13.8029C13.275 13.9526 13.5021 14.1622 13.5332 14.1988C13.5332 14.2521 13.5146 14.2753 13.275 14.3519Z" fill="black"/>
<path d="M1.94492 9.05891C2.00715 9.11547 2.07561 9.1687 2.14096 9.22193C1.92936 9.73093 1.67419 10.4196 1.52482 11.0816C1.49682 11.2114 1.5715 11.3478 1.69286 11.381C1.81733 11.4176 1.94803 11.3311 1.97915 11.198C2.11295 10.6026 2.34012 9.98044 2.53616 9.50138C2.9158 9.74423 3.34834 9.95382 3.82445 10.1235C3.94581 10.1667 4.07961 10.0935 4.12007 9.96713C4.16052 9.83739 4.09517 9.69433 3.97381 9.65108C2.4428 9.10549 1.48437 8.18396 1.12029 6.91312C0.933579 6.25774 0.946026 5.43269 1.16074 4.52114C1.19186 4.38807 1.11718 4.25167 0.989591 4.21841C0.865119 4.18514 0.737535 4.26498 0.706417 4.40138C0.473032 5.39942 0.460584 6.32095 0.672187 7.06283C0.899349 7.8413 1.32567 8.51664 1.94492 9.05891Z" fill="black"/>
<path d="M1.1358 3.73933C1.25716 3.78923 1.39096 3.72602 1.43764 3.5996C2.04444 1.94617 3.11179 0.648719 3.97376 0.518973C4.91352 0.379247 5.41141 1.16105 5.4332 1.19432C5.47676 1.26418 5.55144 1.30743 5.62924 1.30743H8.36762C8.44542 1.30743 8.5201 1.26418 8.56367 1.19432C8.56989 1.18766 9.074 0.37592 10.0231 0.518973C10.6206 0.608797 11.3301 1.25752 11.9213 2.25224C12.3476 2.96751 12.6806 3.80586 12.858 4.6176C13.0509 5.49256 13.0571 6.28766 12.8766 6.91643C12.5125 8.18727 11.5541 9.10547 10.0231 9.6544C9.90797 9.69432 9.83951 9.83072 9.87063 9.95713C9.90486 10.0935 10.0449 10.1734 10.1694 10.1268C10.6455 9.95713 11.0749 9.74755 11.4576 9.50469C11.5821 9.80743 11.691 10.1035 11.7844 10.383C11.8279 10.5194 11.9742 10.5859 12.0987 10.5293C12.2107 10.4761 12.2667 10.3397 12.2263 10.2166C12.1236 9.90058 11.996 9.5679 11.856 9.22191C11.9244 9.16868 11.9898 9.11545 12.052 9.0589C12.6712 8.51663 13.1007 7.84128 13.3247 7.05948C13.7759 5.47925 13.1442 3.37005 12.3165 1.97944C11.6412 0.848327 10.8291 0.133063 10.0885 0.0232783C9.08023 -0.129755 8.46098 0.53228 8.25249 0.805079H5.74749C5.539 0.528954 4.91975 -0.129755 3.91152 0.0232783C3.37007 0.103122 2.7975 0.499012 2.25293 1.16105C1.75816 1.7632 1.31628 2.56496 1.0051 3.4133C0.955311 3.54304 1.01444 3.68942 1.1358 3.73933Z" fill="black"/>
<path d="M5.92795 2.52839C5.80036 2.50843 5.68211 2.60158 5.66033 2.73798C5.65411 2.78123 5.60432 3.18377 5.88127 3.52643C6.11154 3.81254 6.48807 3.95892 6.99841 3.95892C7.50875 3.95892 7.88527 3.81254 8.11555 3.52643C8.38939 3.18377 8.34271 2.78123 8.33649 2.73798C8.31782 2.60158 8.19646 2.50843 8.06887 2.52839C7.94129 2.54835 7.85416 2.67809 7.87283 2.81449C7.87283 2.81782 7.89772 3.03074 7.7608 3.2004C7.62388 3.37007 7.36249 3.45989 6.99841 3.45989C6.63744 3.45989 6.37605 3.3734 6.23913 3.20706C6.0991 3.03406 6.12088 2.82115 6.12399 2.81449C6.14266 2.67477 6.05553 2.54835 5.92795 2.52839Z" fill="black"/>
<path d="M4.26322 1.38729C4.00494 1.25755 3.68753 1.42389 3.53817 1.76322C3.3888 2.10256 3.47593 2.46851 3.73421 2.59825C4.02983 2.74463 4.33479 2.5051 4.45926 2.22232C4.58062 1.94287 4.55884 1.53367 4.26322 1.38729Z" fill="black"/>
<path d="M10.2659 2.59825C10.5241 2.46851 10.6082 2.10256 10.4588 1.76322C10.3094 1.42389 9.99203 1.25755 9.73375 1.38729C9.44124 1.53367 9.41635 1.94287 9.54082 2.22232C9.66218 2.5051 9.97025 2.74463 10.2659 2.59825Z" fill="black"/>
</g>
<defs>
<clipPath id="clip0_381_2986">
<rect width="14" height="17" fill="white" transform="matrix(-1 -8.74228e-08 -8.74228e-08 1 14 0)"/>
</clipPath>
</defs>
</svg>
