<svg width="56" height="56" viewBox="0 0 56 56" fill="none" xmlns="http://www.w3.org/2000/svg">
<g clip-path="url(#clip0_741_11813)">
<path d="M21.4302 26.0298L18.3911 37.6716L30.0112 34.6268L25.7207 30.3283L21.4302 26.0298Z" fill="white" stroke="#DDC8B4" stroke-width="3" stroke-linecap="round" stroke-linejoin="round"/>
<path d="M49.4972 15.1045C51.0168 13.5821 51.0168 11.1642 49.4972 9.73139L46.2793 6.50751C44.7598 4.98513 42.3464 4.98513 40.9162 6.50751L21.4302 26.0299L30.0112 34.6269L49.4972 15.1045Z" fill="white" stroke="#DDC8B4" stroke-width="3" stroke-linecap="round" stroke-linejoin="round"/>
<path d="M45.028 30.7761V47.1642C45.028 48.1492 44.6704 48.9552 44.0447 49.5821C43.419 50.2089 42.5252 50.5672 41.6313 50.5672H25.1844H8.73747C7.75423 50.5672 6.94976 50.2089 6.32406 49.5821C5.69836 48.9552 5.34082 48.0597 5.34082 47.1642V30.7761V14.2985C5.34082 13.3134 5.69836 12.5074 6.32406 11.8806C6.94976 11.2537 7.84361 10.8955 8.73747 10.8955H25.095" stroke="#C68951" stroke-width="3" stroke-linecap="round" stroke-linejoin="round"/>
</g>
<defs>
<clipPath id="clip0_741_11813">
<rect width="48" height="48" fill="white" transform="translate(4 4)"/>
</clipPath>
</defs>
</svg>
