<svg width="40" height="40" viewBox="0 0 40 40" fill="none" xmlns="http://www.w3.org/2000/svg">
<rect width="40" height="40" rx="20" fill="#F8F8F8"/>
<g clip-path="url(#clip0_607_2947)">
<path d="M31.763 29.3903C31.7058 28.8145 30.056 28.51 28.7913 28.3605C28.1564 29.3792 27.0322 30.016 25.1534 30.3537C26.3817 31.3282 26.8709 32.8508 27.3653 32.9006C27.9586 32.9615 27.9534 32.214 28.2917 31.9317C28.6352 31.6493 29.7177 32.0369 29.9623 31.8099C30.3422 31.461 29.9623 30.9793 30.363 30.4755C30.769 29.9772 31.8411 30.1876 31.763 29.3903Z" fill="#98DB7C"/>
<path d="M12.179 28.366C10.9195 28.5155 9.26454 28.8144 9.2073 29.3958C9.12923 30.1876 10.2013 29.9827 10.6021 30.4865C11.0028 30.9904 10.6177 31.4721 11.0028 31.8209C11.2474 32.0479 12.3351 31.6603 12.6734 31.9427C13.0169 32.2251 13.0065 32.9725 13.5998 32.9116C14.0942 32.8618 14.5834 31.3392 15.8117 30.3647C13.9381 30.0159 12.8139 29.3847 12.179 28.366Z" fill="#98DB7C"/>
<path d="M30.6599 17.4864C31.8152 13.4722 28.4896 6.77834 25.5804 6.34094C23.7328 6.0641 22.7648 7.64207 22.7648 7.64207L18.2005 7.64207C18.2005 7.64207 17.2325 6.0641 15.3849 6.34094C12.4861 6.77834 9.16046 13.4722 10.3106 17.4864C10.7686 19.0809 11.7262 20.2326 12.8764 21.052C12.1894 22.6411 11.2995 25.1104 11.5805 26.6939C12.1009 29.6284 14.2139 30.6749 20.4852 30.6749C26.7566 30.6749 28.8695 29.6339 29.39 26.6939C29.671 25.1104 28.7811 22.6411 28.0941 21.052C29.2443 20.2326 30.2019 19.0865 30.6599 17.4864Z" fill="#AEE295"/>
<path d="M29.6761 28.4878C29.3795 28.4379 29.0776 28.3992 28.7966 28.366C28.1616 29.3847 27.0375 30.0215 25.1587 30.3592C25.6479 30.7468 26.0174 31.2229 26.3245 31.6603C28.3178 31.1067 29.2806 30.099 29.6761 28.4878Z" fill="#82D361"/>
<path d="M14.651 31.6603C14.9528 31.2229 15.3275 30.7523 15.8167 30.3592C13.938 30.0159 12.819 29.3847 12.1789 28.366C11.8978 28.3992 11.596 28.4379 11.2993 28.4878C11.6949 30.099 12.6577 31.1067 14.651 31.6603Z" fill="#82D361"/>
<path d="M20.485 29.1854C14.2345 29.1854 12.1111 28.15 11.5855 25.2322C11.5126 25.7637 11.5022 26.262 11.5803 26.6994C12.1007 29.6339 14.2137 30.6803 20.485 30.6803C26.7563 30.6803 28.8693 29.6394 29.3898 26.6994C29.4678 26.2675 29.4574 25.7637 29.3846 25.2322C28.8589 28.15 26.7355 29.1854 20.485 29.1854Z" fill="#98DB7C"/>
<path d="M15.6501 26.2897C15.6501 26.2897 15.952 28.8421 17.3208 31.6382C17.3208 31.6382 15.7594 32.7344 15.9156 33.1497C16.0769 33.5649 16.894 33.0722 17.1959 33.1497C17.4977 33.2272 17.6278 33.6978 17.9141 33.6867C18.2003 33.6757 18.6687 33.2272 18.8457 33.2272C19.0226 33.2272 19.7356 33.6978 19.9074 33.5982C20.1624 33.4542 19.6836 32.2084 19.2204 31.6492C19.2204 31.6492 19.6419 27.1479 19.6419 27.1146" fill="#AEE295"/>
<path d="M25.3201 26.2897C25.3201 26.2897 25.0182 28.8421 23.6495 31.6382C23.6495 31.6382 25.2108 32.7344 25.0547 33.1497C24.8933 33.5649 24.0762 33.0722 23.7744 33.1497C23.4725 33.2272 23.3424 33.6978 23.0562 33.6867C22.7699 33.6757 22.3015 33.2272 22.1246 33.2272C21.9476 33.2272 21.2346 33.6978 21.0629 33.5982C20.8078 33.4542 21.2867 32.2084 21.7498 31.6492C21.7498 31.6492 21.3283 27.1479 21.3283 27.1146" fill="#AEE295"/>
<path d="M32.1847 29.3791C32.1222 28.7258 31.2895 28.3161 29.4367 28.0503C29.5981 27.6794 29.7178 27.2641 29.801 26.799C29.9103 26.1844 29.8687 25.4093 29.6813 24.5013C29.6345 24.2743 29.4263 24.1358 29.2129 24.1857C28.9996 24.2355 28.8694 24.457 28.9163 24.684C29.0828 25.4813 29.1193 26.1401 29.0308 26.644C28.7237 28.3659 27.8858 29.5508 24.7788 30.038C25.5178 28.0116 25.7104 26.4447 25.7208 26.3616C25.7468 26.1346 25.5959 25.9242 25.3825 25.8965C25.1691 25.8688 24.9713 26.0294 24.9453 26.2564C24.9401 26.2786 24.6383 28.7756 23.3111 31.4831C23.2175 31.6713 23.2747 31.9039 23.4412 32.0202C23.8524 32.3081 24.2479 32.6458 24.4821 32.895C24.4405 32.8839 24.3989 32.8728 24.3624 32.8617C24.123 32.7953 23.894 32.7344 23.6859 32.7842C23.4204 32.8507 23.2539 33.05 23.1342 33.1995C23.1082 33.2327 23.0665 33.277 23.0405 33.3102C22.952 33.277 22.7907 33.1718 22.7022 33.1109C22.4888 32.9725 22.3171 32.8562 22.1245 32.8562C21.9736 32.8562 21.8279 32.9226 21.552 33.0555C21.5208 33.0721 21.4896 33.0887 21.4532 33.1054C21.5625 32.7621 21.7862 32.2693 22.0413 31.9648C22.1141 31.8762 22.1454 31.7655 22.1349 31.6492C22.0204 30.4366 21.729 27.2807 21.7134 27.1146C21.703 26.8987 21.5312 26.727 21.3231 26.727C21.1097 26.727 20.9327 26.9153 20.9327 27.1423C20.9327 27.1644 20.9327 27.1921 21.219 30.2927C20.9796 30.2982 20.7298 30.2982 20.4747 30.2982C20.2197 30.2982 19.9699 30.2982 19.7305 30.2927C20.0167 27.1921 20.0167 27.1644 20.0167 27.1423C20.0167 26.9153 19.8398 26.727 19.6264 26.727C19.4182 26.727 19.2465 26.8987 19.2361 27.1146C19.2257 27.2807 18.929 30.4366 18.8145 31.6492C18.8041 31.7655 18.8406 31.8762 18.9082 31.9648C19.1632 32.2693 19.3818 32.7621 19.4963 33.1054C19.4599 33.0887 19.4234 33.0721 19.3974 33.0555C19.1268 32.9226 18.9759 32.8562 18.8249 32.8562C18.6324 32.8562 18.4658 32.9669 18.2472 33.1109C18.1536 33.1718 17.9922 33.277 17.909 33.3102C17.8829 33.2825 17.8413 33.2327 17.8153 33.1995C17.6956 33.0555 17.529 32.8507 17.2636 32.7842C17.0606 32.7344 16.8316 32.7953 16.587 32.8617C16.5558 32.8728 16.5142 32.8839 16.4673 32.895C16.7015 32.6458 17.1023 32.3081 17.5082 32.0202C17.6748 31.9039 17.732 31.6713 17.6383 31.4831C16.3164 28.7812 16.0094 26.2841 16.0041 26.2564C15.9781 26.0294 15.7804 25.8688 15.567 25.8965C15.3536 25.9242 15.2027 26.1346 15.2287 26.3616C15.2391 26.4447 15.4317 28.0116 16.1707 30.038C13.8391 29.6836 12.3194 28.914 11.9187 26.644C11.8875 26.4668 11.8718 26.2675 11.8718 26.046C11.8718 25.819 11.7001 25.6308 11.4815 25.6308C11.2681 25.6308 11.0912 25.8135 11.0912 26.046C11.0912 26.3173 11.112 26.572 11.1536 26.799C11.2369 27.2641 11.3566 27.6794 11.5179 28.0503C9.66517 28.3161 8.83767 28.7258 8.77001 29.3791C8.69195 30.193 9.35291 30.409 9.74844 30.5363C9.95662 30.6027 10.17 30.6747 10.2585 30.7855C10.3678 30.9239 10.373 31.0401 10.373 31.2561C10.373 31.4997 10.3782 31.8762 10.7009 32.1696C10.9403 32.3911 11.3098 32.3524 11.7313 32.3136C11.9291 32.297 12.2934 32.2582 12.3975 32.3081C12.4547 32.3579 12.512 32.4852 12.564 32.6015C12.6993 32.895 12.9283 33.3711 13.4904 33.3711C13.5268 33.3711 13.5633 33.3711 13.5997 33.3656C14.0109 33.3213 14.2815 32.9171 14.6562 32.3468C14.9685 31.8762 15.3536 31.2948 15.8896 30.8298C16.0926 30.863 16.3008 30.8962 16.5246 30.9239C16.6079 31.1232 16.7015 31.3281 16.7952 31.5385C16.6495 31.6492 16.4673 31.7931 16.2852 31.9537C15.8064 32.3745 15.3432 32.8673 15.5305 33.349C15.7595 33.9469 16.4257 33.7642 16.7848 33.6701C16.8837 33.6424 17.0294 33.6037 17.0919 33.5981C17.1283 33.6203 17.1908 33.6978 17.2324 33.7476C17.3625 33.9082 17.5655 34.1463 17.8829 34.1463C17.8933 34.1463 17.8986 34.1463 17.909 34.1463C18.1692 34.1352 18.4294 33.9635 18.6636 33.8141C18.7156 33.7808 18.7885 33.731 18.8406 33.7033C18.9082 33.731 19.0019 33.7808 19.0747 33.8141C19.4651 34.0023 19.8086 34.1684 20.0844 34.0078C20.1625 33.9635 20.3082 33.8473 20.3446 33.5981C20.4279 33.0887 19.9959 32.1032 19.6108 31.5606C19.6264 31.4111 19.6368 31.2616 19.6524 31.1177C19.9179 31.1232 20.1937 31.1232 20.4747 31.1232C20.7558 31.1232 21.0316 31.1232 21.297 31.1177C21.3126 31.2616 21.3231 31.4056 21.3387 31.5551C21.1565 31.8042 20.9796 32.1364 20.8338 32.4852C20.6985 32.8119 20.5476 33.2715 20.6048 33.5926C20.6465 33.8417 20.787 33.9525 20.8651 34.0023C21.1409 34.1629 21.4792 33.9968 21.8747 33.8085C21.9476 33.7753 22.0413 33.7255 22.1089 33.6978C22.161 33.7255 22.2338 33.7753 22.2859 33.8085C22.5149 33.958 22.7751 34.1296 23.0405 34.1407C23.0509 34.1407 23.0561 34.1407 23.0665 34.1407C23.3892 34.1407 23.587 33.9026 23.7171 33.7421C23.7587 33.6922 23.8264 33.6092 23.8576 33.5926C23.9201 33.5926 24.0658 33.6369 24.1647 33.6646C24.5238 33.7642 25.1899 33.9414 25.4189 33.3434C25.6011 32.8617 25.1379 32.369 24.6643 31.9482C24.4821 31.7876 24.3 31.6437 24.1543 31.5329C24.2479 31.3281 24.3416 31.1232 24.4249 30.9183C24.6435 30.8907 24.8568 30.8574 25.0598 30.8242C25.5959 31.2893 25.9758 31.8651 26.2933 32.3413C26.668 32.906 26.9386 33.3157 27.3498 33.36C27.3862 33.3656 27.4226 33.3656 27.4591 33.3656C28.0211 33.3656 28.2449 32.8894 28.3854 32.596C28.4375 32.4797 28.4999 32.3524 28.552 32.3025C28.6561 32.2527 29.0204 32.2859 29.2181 32.3081C29.6397 32.3468 30.0092 32.3856 30.2486 32.1641C30.5713 31.8707 30.5765 31.4942 30.5765 31.2505C30.5765 31.0346 30.5869 30.9128 30.691 30.7799C30.7795 30.6692 30.9928 30.6027 31.201 30.5308C31.6018 30.409 32.2679 30.193 32.1847 29.3791ZM14.0369 31.8651C13.8651 32.1198 13.6361 32.4742 13.5268 32.5351C13.454 32.5406 13.4228 32.524 13.2822 32.225C13.1886 32.0312 13.0845 31.8098 12.8919 31.6437C12.5901 31.3945 12.1269 31.4388 11.6793 31.4831C11.5284 31.4997 11.3046 31.5218 11.2057 31.5052C11.1849 31.4665 11.1745 31.4111 11.1745 31.245C11.1745 30.9959 11.1692 30.6194 10.8778 30.2484C10.6436 29.9494 10.3001 29.8387 9.99825 29.739C9.59751 29.6117 9.56108 29.5674 9.56629 29.4899C9.61833 29.429 10.0035 29.0801 11.9707 28.831C12.1997 29.1521 12.4756 29.429 12.7982 29.6726C13.3551 30.0878 14.0577 30.4034 14.9581 30.636C14.5729 31.0568 14.2763 31.5052 14.0369 31.8651ZM30.9824 29.739C30.6806 29.8387 30.3371 29.9494 30.1029 30.2484C29.8114 30.6194 29.8062 30.9959 29.8062 31.245C29.8062 31.4111 29.801 31.472 29.775 31.5052C29.6761 31.5163 29.4523 31.4942 29.3014 31.4831C28.8538 31.4388 28.3906 31.3945 28.0888 31.6437C27.891 31.8042 27.7869 32.0257 27.6985 32.225C27.5579 32.524 27.5267 32.5406 27.4538 32.5351C27.3446 32.4742 27.1156 32.1253 26.9438 31.8651C26.7044 31.5052 26.4078 31.0568 26.0226 30.6304C26.923 30.4034 27.6256 30.0878 28.1825 29.667C28.5051 29.4234 28.781 29.1466 29.01 28.8255C30.9824 29.0746 31.3624 29.4234 31.4144 29.4843C31.4144 29.5729 31.3832 29.6117 30.9824 29.739Z" fill="black"/>
<path d="M12.0333 20.9302C12.1374 21.0243 12.2519 21.1129 12.3612 21.2015C12.0073 22.0486 11.5805 23.1947 11.3307 24.2965C11.2838 24.5124 11.4087 24.7394 11.6117 24.7948C11.8199 24.8557 12.0385 24.7117 12.0905 24.4903C12.3143 23.4992 12.6942 22.4638 13.0221 21.6665C13.6571 22.0707 14.3805 22.4195 15.1767 22.7019C15.3797 22.7739 15.6035 22.6521 15.6712 22.4417C15.7388 22.2258 15.6295 21.9877 15.4266 21.9157C12.866 21.0077 11.263 19.474 10.6541 17.359C10.3418 16.2682 10.3627 14.8951 10.7218 13.3781C10.7738 13.1566 10.6489 12.9296 10.4355 12.8742C10.2273 12.8189 10.014 12.9517 9.96192 13.1787C9.57159 14.8398 9.55077 16.3734 9.90467 17.6081C10.2846 18.9037 10.9976 20.0277 12.0333 20.9302Z" fill="black"/>
<path d="M10.68 12.0769C10.883 12.1599 11.1068 12.0547 11.1849 11.8444C12.1997 9.0926 13.9848 6.93328 15.4264 6.71734C16.9982 6.4848 17.8309 7.78593 17.8673 7.8413C17.9402 7.95757 18.0651 8.02955 18.1952 8.02955L22.7751 8.02955C22.9052 8.02955 23.0301 7.95757 23.1029 7.8413C23.1134 7.83023 23.9565 6.47926 25.5438 6.71734C26.5431 6.86683 27.7297 7.9465 28.7185 9.60198C29.4315 10.7924 29.9884 12.1876 30.285 13.5386C30.6077 14.9948 30.6181 16.318 30.3163 17.3645C29.7073 19.4795 28.1044 21.0076 25.5438 21.9212C25.3513 21.9876 25.2368 22.2146 25.2888 22.425C25.346 22.652 25.5802 22.7849 25.7884 22.7074C26.5847 22.425 27.3029 22.0762 27.943 21.672C28.1512 22.1759 28.3334 22.6687 28.4895 23.1337C28.5624 23.3608 28.807 23.4715 29.0152 23.3774C29.2025 23.2888 29.2962 23.0618 29.2285 22.8569C29.0568 22.3309 28.8434 21.7772 28.6092 21.2014C28.7237 21.1128 28.833 21.0242 28.9371 20.9301C29.9728 20.0276 30.691 18.9037 31.0657 17.6026C31.8203 14.9726 30.7638 11.4623 29.3795 9.14797C28.2501 7.26548 26.8918 6.07508 25.6531 5.89237C23.9669 5.63768 22.9312 6.73949 22.5825 7.1935L18.393 7.1935C18.0443 6.73395 17.0086 5.63768 15.3224 5.89237C14.4168 6.02525 13.4592 6.68412 12.5484 7.78593C11.7209 8.78808 10.9819 10.1224 10.4614 11.5343C10.3782 11.7502 10.4771 11.9938 10.68 12.0769Z" fill="black"/>
<path d="M18.6948 10.0616C18.4814 10.0284 18.2836 10.1834 18.2472 10.4104C18.2368 10.4824 18.1535 11.1523 18.6167 11.7226C19.0018 12.1988 19.6316 12.4424 20.4851 12.4424C21.3386 12.4424 21.9684 12.1988 22.3535 11.7226C22.8115 11.1523 22.7334 10.4824 22.723 10.4104C22.6918 10.1834 22.4888 10.0284 22.2754 10.0616C22.062 10.0948 21.9163 10.3108 21.9475 10.5378C21.9475 10.5433 21.9892 10.8977 21.7602 11.18C21.5312 11.4624 21.094 11.6119 20.4851 11.6119C19.8814 11.6119 19.4442 11.4679 19.2152 11.1911C18.981 10.9032 19.0175 10.5488 19.0227 10.5378C19.0539 10.3052 18.9082 10.0948 18.6948 10.0616Z" fill="black"/>
<path d="M15.9106 8.16252C15.4786 7.94658 14.9478 8.22342 14.6979 8.78817C14.4481 9.35291 14.5939 9.96195 15.0258 10.1779C15.5202 10.4215 16.0303 10.0229 16.2385 9.55224C16.4414 9.08715 16.405 8.40613 15.9106 8.16252Z" fill="black"/>
<path d="M25.9499 10.1779C26.3819 9.96195 26.5224 9.35291 26.2726 8.78817C26.0227 8.22342 25.4919 7.94658 25.0599 8.16252C24.5707 8.40613 24.5291 9.08715 24.7373 9.55224C24.9402 10.0229 25.4555 10.4215 25.9499 10.1779Z" fill="black"/>
</g>
<defs>
<clipPath id="clip0_607_2947">
<rect width="23.4146" height="28.2927" fill="white" transform="matrix(-1 -8.74228e-08 -8.74228e-08 1 32.1951 5.85364)"/>
</clipPath>
</defs>
</svg>
