<svg width="56" height="56" viewBox="0 0 56 56" fill="none" xmlns="http://www.w3.org/2000/svg">
<g clip-path="url(#clip0_741_11811)">
<path d="M40.6373 20.3941V10.0505C40.6373 9.6527 40.5362 9.25487 40.435 8.9565C40.3339 8.65812 40.0305 8.35975 39.8282 8.06138C39.6259 7.763 39.2213 7.56409 38.9179 7.46463C38.6144 7.36517 38.2098 7.26572 37.8053 7.26572H36.7938H35.7824H34.7709H33.7595C33.3549 7.26572 32.9503 7.36518 32.6469 7.36518C32.3434 7.46463 32.04 7.56409 31.7366 7.76301C31.4331 7.96192 31.2308 8.16084 31.1297 8.35975C31.0285 8.55867 30.9274 8.85704 30.9274 9.05595C30.9274 9.25487 30.8263 9.55324 30.7251 9.75216C30.624 9.95107 30.3205 10.15 30.1182 10.2494C29.8148 10.4484 29.5114 10.5478 29.2079 10.6473C28.9045 10.7467 28.4999 10.7467 28.0953 10.7467H25.061H22.0266H18.9923H15.9579C15.5533 10.7467 15.1488 10.6473 14.8453 10.6473C14.5419 10.5478 14.2385 10.4484 13.935 10.2494C13.6316 10.0505 13.4293 9.85161 13.3282 9.6527C13.227 9.45378 13.1259 9.15541 13.1259 8.9565C13.1259 8.75758 13.0247 8.45921 12.9236 8.26029C12.8224 8.06138 12.519 7.86246 12.3167 7.66355C12.1144 7.56409 11.811 7.46463 11.5075 7.36518C11.103 7.26572 10.6984 7.16626 10.395 7.16626H9.3835H8.37205H7.3606H6.34915C6.04572 7.16626 5.64114 7.26572 5.23656 7.46463C4.93312 7.56409 4.62969 7.763 4.32625 8.06138C4.12396 8.26029 3.92167 8.55867 3.71938 8.9565C3.61823 9.25487 3.51709 9.6527 3.51709 10.0505V20.4936V30.8371V41.2802V51.7232C3.51709 52.1211 3.61823 52.5189 3.71938 52.8173C3.82053 53.1156 4.12396 53.414 4.32625 53.7124C4.62969 54.0107 4.93312 54.2097 5.23656 54.3091C5.53999 54.4086 5.94457 54.508 6.34915 54.508H14.2385H22.1278H30.0171H37.9064C38.311 54.508 38.7156 54.4086 39.019 54.3091C39.3224 54.2097 39.6259 53.9113 39.9293 53.7124C40.2327 53.414 40.435 53.1156 40.5362 52.8173C40.6373 52.5189 40.7385 52.1211 40.7385 51.7232V41.2802" fill="white"/>
<path d="M40.6373 20.3941V10.0505C40.6373 9.6527 40.5362 9.25487 40.435 8.9565C40.3339 8.65812 40.0305 8.35975 39.8282 8.06138C39.6259 7.763 39.2213 7.56409 38.9179 7.46463C38.6144 7.36517 38.2098 7.26572 37.8053 7.26572H36.7938H35.7824H34.7709H33.7595C33.3549 7.26572 32.9503 7.36518 32.6469 7.36518C32.3434 7.46463 32.04 7.56409 31.7366 7.76301C31.4331 7.96192 31.2308 8.16084 31.1297 8.35975C31.0285 8.55867 30.9274 8.85704 30.9274 9.05595C30.9274 9.25487 30.8263 9.55324 30.7251 9.75216C30.624 9.95107 30.3205 10.15 30.1182 10.2494C29.8148 10.4484 29.5114 10.5478 29.2079 10.6473C28.9045 10.7467 28.4999 10.7467 28.0953 10.7467H25.061H22.0266H18.9923H15.9579C15.5533 10.7467 15.1488 10.6473 14.8453 10.6473C14.5419 10.5478 14.2385 10.4484 13.935 10.2494C13.6316 10.0505 13.4293 9.85161 13.3282 9.6527C13.227 9.45378 13.1259 9.15541 13.1259 8.9565C13.1259 8.75758 13.0247 8.45921 12.9236 8.26029C12.8224 8.06138 12.519 7.86246 12.3167 7.66355C12.1144 7.56409 11.811 7.46463 11.5075 7.36518C11.103 7.26572 10.6984 7.16626 10.395 7.16626H9.3835H8.37205H7.3606H6.34915C6.04572 7.16626 5.64114 7.26572 5.23656 7.46463C4.93312 7.56409 4.62969 7.763 4.32625 8.06138C4.12396 8.26029 3.92167 8.55867 3.71938 8.9565C3.61823 9.25487 3.51709 9.6527 3.51709 10.0505V20.4936V30.8371V41.2802V51.7232C3.51709 52.1211 3.61823 52.5189 3.71938 52.8173C3.82053 53.1156 4.12396 53.414 4.32625 53.7124C4.62969 54.0107 4.93312 54.2097 5.23656 54.3091C5.53999 54.4086 5.94457 54.508 6.34915 54.508H14.2385H22.1278H30.0171H37.9064C38.311 54.508 38.7156 54.4086 39.019 54.3091C39.3224 54.2097 39.6259 53.9113 39.9293 53.7124C40.2327 53.414 40.435 53.1156 40.5362 52.8173C40.6373 52.5189 40.7385 52.1211 40.7385 51.7232V41.2802" stroke="#C68951" stroke-width="3" stroke-linecap="round" stroke-linejoin="round"/>
<path d="M30.9274 7.16629C30.9274 7.16629 30.9274 6.07226 30.9274 4.77931C30.9274 3.48637 29.6125 2.39233 28.0954 2.39233H16.0591C14.4408 2.39233 13.2271 3.48637 13.2271 4.77931C13.2271 6.07226 13.2271 7.16629 13.2271 7.16629" fill="white"/>
<path d="M30.9274 7.16629C30.9274 7.16629 30.9274 6.07226 30.9274 4.77931C30.9274 3.48637 29.6125 2.39233 28.0954 2.39233H16.0591C14.4408 2.39233 13.2271 3.48637 13.2271 4.77931C13.2271 6.07226 13.2271 7.16629 13.2271 7.16629" stroke="#C68951" stroke-width="3" stroke-linecap="round" stroke-linejoin="round"/>
<path d="M13.2271 7.16626C13.2271 7.16626 13.2271 7.96192 13.2271 8.9565C13.2271 9.95107 14.5419 10.7467 16.0591 10.7467H27.9942C29.6125 10.7467 30.8263 9.95107 30.8263 8.9565C30.8263 7.96192 30.8263 7.16626 30.8263 7.16626" fill="white"/>
<path d="M13.2271 7.16626C13.2271 7.16626 13.2271 7.96192 13.2271 8.9565C13.2271 9.95107 14.5419 10.7467 16.0591 10.7467H27.9942C29.6125 10.7467 30.8263 9.95107 30.8263 8.9565C30.8263 7.96192 30.8263 7.16626 30.8263 7.16626" stroke="#C68951" stroke-width="3" stroke-linecap="round" stroke-linejoin="round"/>
<path d="M34.3663 39.2911L25.1621 40.1862L29.2079 32.0307L38.7155 25.4665L48.2232 18.9023L50.8529 22.5823L53.4827 26.2622L43.8739 32.8264L34.3663 39.2911Z" fill="white" stroke="#DDC8B4" stroke-width="3" stroke-linecap="round" stroke-linejoin="round"/>
</g>
<defs>
<clipPath id="clip0_741_11811">
<rect width="53" height="55" fill="white" transform="translate(2 1)"/>
</clipPath>
</defs>
</svg>
