<svg width="14" height="14" viewBox="0 0 14 14" fill="none" xmlns="http://www.w3.org/2000/svg">
<path d="M12.25 0H1.75C0.758333 0 0 0.752066 0 1.73554V9.2562C0 10.2397 0.758333 10.9917 1.75 10.9917H2.33333V14L5.775 10.9917H12.25C13.2417 10.9917 14 10.2397 14 9.2562V1.73554C14 0.752066 13.2417 0 12.25 0ZM12.8333 9.2562C12.8333 9.60331 12.6 9.83471 12.25 9.83471H5.30833L3.5 11.4545V9.83471H1.75C1.4 9.83471 1.16667 9.60331 1.16667 9.2562V1.73554C1.16667 1.38843 1.4 1.15702 1.75 1.15702H12.25C12.6 1.15702 12.8333 1.38843 12.8333 1.73554V9.2562Z" fill="#0E0F0E"/>
<path d="M11.0833 3.47107H2.91663V4.62809H11.0833V3.47107Z" fill="#0E0F0E"/>
<path d="M11.0833 5.78516H2.91663V6.94218H11.0833V5.78516Z" fill="#0E0F0E"/>
</svg>
