<svg width="56" height="76" viewBox="0 0 56 76" fill="none" xmlns="http://www.w3.org/2000/svg">
<path d="M6.01458 70.9381C8.5038 70.9381 10.5217 68.951 10.5217 66.4998C10.5217 64.0486 8.5038 62.0615 6.01458 62.0615C3.52536 62.0615 1.50745 64.0486 1.50745 66.4998C1.50745 68.951 3.52536 70.9381 6.01458 70.9381Z" fill="white"/>
<path d="M44.3628 43.9521C44.1216 40.4935 44.4231 37.02 45.3577 33.6802L28.8064 37.9997C26.892 43.6997 9.67749 46.5052 9.67749 60.681C9.67749 68.3255 15.9634 74.5153 23.7265 74.5153H31.5801H41.1521C41.9811 74.5153 42.6444 73.8622 42.6444 73.0458C42.6444 70.5669 40.6094 68.563 38.092 68.563H35.1677C37.474 67.2567 39.0417 64.8075 39.0417 62.0021C39.0417 60.3841 38.5292 58.8849 37.6549 57.6677L40.4436 54.7583C43.2473 51.8044 44.6342 47.8708 44.3628 43.9521Z" fill="white"/>
<path d="M17.1542 11.6374C21.1488 18.4358 26.8317 23.5421 33.1327 26.6147C33.5698 19.7124 31.8815 12.3053 27.8869 5.52176C27.6608 5.15066 27.4347 4.77957 27.2086 4.40847C23.018 -2.21184 12.7677 3.6366 16.506 10.5093C16.717 10.8803 16.9281 11.2514 17.1542 11.6374Z" fill="#DDC8B4"/>
<path d="M11.7125 19.0741C17.9683 23.9429 25.1586 26.6296 32.168 27.2085C29.9822 20.6327 25.656 14.3538 19.4003 9.49993C19.0536 9.23274 18.7069 8.96556 18.3451 8.71321C11.9688 4.08196 4.62774 13.2406 10.6875 18.2726C11.0191 18.5249 11.3658 18.807 11.7125 19.0741Z" fill="white"/>
<path d="M54.4926 30.4295C54.4926 36.1592 46.8049 41.3248 38.5292 41.3248C30.2536 41.3248 24.6008 35.7881 24.6008 28.9451C24.6008 22.1021 30.2385 16.5654 38.5292 16.5654C46.8199 16.5654 54.4926 25.2787 54.4926 30.4295Z" fill="white"/>
<path d="M54.4926 30.4295C54.4926 36.1592 46.8049 41.3248 38.5292 41.3248C30.2536 41.3248 24.6008 35.7881 24.6008 28.9451C24.6008 22.1021 30.2385 16.5654 38.5292 16.5654C46.8199 16.5654 54.4926 25.2787 54.4926 30.4295Z" fill="white"/>
<path d="M54.4926 30.4295C54.4926 36.1592 46.8049 41.3248 38.5292 41.3248C30.2536 41.3248 24.6008 35.7881 24.6008 28.9451C24.6008 22.1021 30.2385 16.5654 38.5292 16.5654C46.8199 16.5654 54.4926 25.2787 54.4926 30.4295Z" fill="white"/>
<path d="M53.7539 28.3662H51.8094C49.8045 28.3662 48.8398 30.7857 50.302 32.1217L52.7892 34.4225L53.7539 28.3662Z" fill="#FF7D7A"/>
<path d="M32.8915 52.6359C36.0269 56.7625 40.4586 59.5977 45.4029 60.7258C47.2872 61.1563 49.1563 59.9094 49.4427 58.0242C49.6839 56.4805 48.7795 54.9813 47.2872 54.4469C44.0462 53.2742 41.0465 50.8398 38.8005 47.5" fill="white"/>
<path d="M56 30.4295C56 27.4459 53.9499 23.6459 50.6638 20.4991C47.0611 17.0553 42.6293 15.0811 38.5292 15.0811C36.8258 15.0811 35.1828 15.3037 33.6452 15.7342C32.7257 11.9194 31.2334 8.23812 29.1833 4.76468C28.9572 4.37874 28.716 3.99281 28.4748 3.60687C26.6056 0.638118 23.3798 -0.623601 20.0485 0.296711C17.1542 1.09827 14.9987 3.32484 14.3655 5.96702C12.0894 6.07093 10.0242 7.25843 8.66756 8.93577C6.37631 11.8006 5.99946 16.3131 9.70767 19.3858C10.0544 19.6678 10.4162 19.9647 10.7629 20.2467C14.5766 23.2155 18.7672 25.442 23.2291 26.9116C23.1236 27.5795 23.0783 28.2623 23.0783 28.96C23.0783 32.5225 24.435 35.8178 26.9222 38.3264C25.9575 39.6475 23.7567 41.028 21.4503 42.4678C20.6816 42.9428 19.8977 43.4475 19.0837 43.967C18.3903 44.4272 18.2094 45.3475 18.6616 46.0303C18.948 46.4608 19.4304 46.6983 19.9128 46.6983C20.1992 46.6983 20.4856 46.6241 20.7419 46.4459C21.5257 45.9412 22.2945 45.4514 23.0482 44.9764C25.6108 43.3733 27.902 41.9334 29.2285 40.2264C31.8213 41.9186 35.032 42.8241 38.484 42.8241C39.9009 42.8241 41.333 42.6756 42.7349 42.3936C42.7499 42.9428 42.765 43.5069 42.8102 44.0709C42.9308 45.8373 42.6746 47.6037 42.0867 49.2514C41.333 48.4795 40.6396 47.6186 40.0215 46.6834C39.5693 46.0006 38.6347 45.8076 37.9262 46.2678C37.2328 46.7131 37.0369 47.6334 37.5042 48.3311C39.9009 51.8936 43.172 54.5655 46.7295 55.842C47.5435 56.1389 48.0409 56.9553 47.9052 57.8014C47.8299 58.3061 47.5435 58.7366 47.1214 59.0186C46.6993 59.3006 46.1868 59.3897 45.6894 59.2858C41.0767 58.2319 36.9464 55.56 34.0522 51.76C33.5548 51.1069 32.6051 50.9733 31.9419 51.4631C31.4595 51.8194 31.2485 52.4131 31.369 52.9623C31.3389 52.9623 31.3238 52.9623 31.2937 52.9623C30.5249 52.9623 29.7712 53.0514 29.0326 53.2444C28.2186 53.4522 27.7362 54.2537 27.9472 55.0405C28.1583 55.842 28.9723 56.317 29.7712 56.1092C30.2686 55.9905 30.7661 55.9311 31.2937 55.9311C34.7004 55.9311 37.474 58.6623 37.474 62.017C37.474 64.1842 36.2832 66.2178 34.3688 67.3014C33.6452 67.7022 33.389 68.6225 33.811 69.3201C34.0824 69.7952 34.5949 70.0623 35.1225 70.0623H38.0468C39.7201 70.0623 41.0918 71.3983 41.0918 73.0459H23.7114C16.7925 73.0459 11.1699 67.5092 11.1699 60.6959C11.1699 58.7811 11.5015 57.0592 12.1798 55.4116C12.4964 54.6545 12.1346 53.7787 11.3507 53.4819C10.582 53.1701 9.6926 53.5264 9.39112 54.2983C8.56205 56.2725 8.15505 58.4397 8.15505 60.7108C8.15505 60.7998 8.15505 60.9037 8.15505 60.9928C7.49179 60.7405 6.76824 60.6069 6.01454 60.6069C2.69825 60.5772 0 63.2342 0 66.4998C0 69.7655 2.69825 72.4225 6.01454 72.4225C8.15505 72.4225 10.0393 71.3092 11.1096 69.6467C13.9435 73.4912 18.541 75.9998 23.7114 75.9998H41.1521C42.8102 75.9998 44.1518 74.6787 44.1518 73.0459C44.1518 70.0326 41.8606 67.5241 38.9061 67.1233C39.9462 65.6389 40.534 63.8428 40.534 61.9873C40.534 61.4975 40.4888 61.0225 40.4135 60.5623C41.8907 61.26 43.4433 61.7944 45.0412 62.1506C45.403 62.2397 45.7647 62.2694 46.1265 62.2694C47.0913 62.2694 48.0409 61.9873 48.8398 61.453C49.9553 60.7108 50.709 59.5381 50.9201 58.217C51.2668 55.9905 49.9553 53.7936 47.7997 53.0217C46.6692 52.6209 45.5688 52.0272 44.5287 51.2998C45.5838 48.9694 46.0361 46.4162 45.8552 43.8483C45.7949 43.0912 45.7798 42.3194 45.7798 41.5623C47.4681 40.9686 49.0509 40.1967 50.4528 39.2467C53.9801 36.8569 56 33.6506 56 30.4295ZM6.01454 69.4686C4.35639 69.4686 2.99973 68.1475 2.99973 66.5147C2.99973 64.8819 4.34132 63.5608 6.01454 63.5608C7.68775 63.5608 9.02934 64.8819 9.02934 66.5147C9.02934 68.1475 7.67268 69.4686 6.01454 69.4686ZM51.327 31.0381C51.0105 30.7412 51.1009 30.4147 51.1612 30.2811C51.2215 30.1475 51.3873 29.8506 51.8094 29.8506H52.94C52.9701 30.0436 52.9852 30.2514 52.9852 30.4295C52.9852 31.053 52.8646 31.6616 52.6536 32.2553L51.327 31.0381ZM20.8624 3.14671C21.8272 2.87952 24.2541 2.53812 25.9273 5.16546C26.1534 5.52171 26.3645 5.87796 26.5906 6.23421C28.5653 9.57406 29.9822 13.1217 30.8113 16.7881C30.2385 17.0701 29.6958 17.3819 29.1682 17.7233C26.7865 14.1756 23.832 11.0139 20.3349 8.29749C19.9731 8.01546 19.6113 7.74827 19.2495 7.48109C18.6315 7.03577 17.9984 6.67952 17.3653 6.44202C17.7421 5.10609 18.8727 3.69593 20.8624 3.14671ZM12.6471 17.9162C12.3155 17.6639 11.9838 17.3967 11.6673 17.1295C9.30067 15.1701 9.64738 12.528 11.0493 10.7764C12.4511 9.03968 14.9685 8.08968 17.4557 9.90062C17.8024 10.153 18.1341 10.4053 18.4657 10.6576C21.797 13.2405 24.6008 16.2834 26.8468 19.6827C25.6108 20.9592 24.6611 22.4287 24.028 24.0319C19.958 22.6662 16.1292 20.6178 12.6471 17.9162ZM29.4848 36.6194C27.3141 34.6303 26.1082 31.8991 26.1082 28.96C26.1082 26.0209 27.3141 23.2897 29.4848 21.3006C31.761 19.2225 34.9717 18.0795 38.5292 18.0795C41.8606 18.0795 45.5236 19.742 48.5685 22.6662C49.9553 23.9873 51.1009 25.4866 51.8848 26.9116C50.3472 26.9116 48.9303 27.817 48.3575 29.2272C47.7997 30.6373 48.1464 32.2108 49.277 33.2498L51.0557 34.8826C48.463 37.7623 43.5941 39.885 38.5292 39.885C34.9717 39.8405 31.761 38.6975 29.4848 36.6194Z" fill="black"/>
<path d="M19.7771 15.4224L16.6568 12.8989C16.0086 12.3794 15.0589 12.4684 14.5313 13.1067C14.0038 13.745 14.0942 14.6802 14.7424 15.1997L17.8627 17.7231C18.1491 17.9458 18.4807 18.0645 18.8124 18.0645C19.2495 18.0645 19.6867 17.8864 19.9731 17.5153C20.5157 16.877 20.4253 15.9419 19.7771 15.4224Z" fill="black"/>
<path d="M14.6218 50.8247C15.4543 50.8247 16.1292 50.1601 16.1292 49.3403C16.1292 48.5205 15.4543 47.856 14.6218 47.856C13.7893 47.856 13.1144 48.5205 13.1144 49.3403C13.1144 50.1601 13.7893 50.8247 14.6218 50.8247Z" fill="black"/>
<path d="M40.5039 27.8022C41.3364 27.8022 42.0113 27.1377 42.0113 26.3179C42.0113 25.4981 41.3364 24.8335 40.5039 24.8335C39.6713 24.8335 38.9965 25.4981 38.9965 26.3179C38.9965 27.1377 39.6713 27.8022 40.5039 27.8022Z" fill="black"/>
</svg>
