<svg width="10" height="15" viewBox="0 0 10 15" fill="none" xmlns="http://www.w3.org/2000/svg">
<g clip-path="url(#clip0_531_310)">
<path d="M5 0.160034C2.25 0.160034 0 2.50422 0 5.36934C0 8.0391 4.0625 13.0531 4.5 13.6391L5 14.16L5.5 13.574C5.9375 13.0531 10 8.0391 10 5.36934C10 2.50422 7.75 0.160034 5 0.160034ZM5 12.1414C3.625 10.3833 1.25 6.99724 1.25 5.36934C1.25 3.2205 2.9375 1.46236 5 1.46236C7.0625 1.46236 8.75 3.2205 8.75 5.36934C8.75 6.99724 6.375 10.3833 5 12.1414Z" fill="#C68951"/>
<path d="M5 2.76471C3.625 2.76471 2.5 3.9368 2.5 5.36936C2.5 6.80192 3.625 7.97401 5 7.97401C6.375 7.97401 7.5 6.80192 7.5 5.36936C7.5 3.9368 6.375 2.76471 5 2.76471ZM5 6.67169C4.3125 6.67169 3.75 6.08564 3.75 5.36936C3.75 4.65308 4.3125 4.06703 5 4.06703C5.6875 4.06703 6.25 4.65308 6.25 5.36936C6.25 6.08564 5.6875 6.67169 5 6.67169Z" fill="#C68951"/>
</g>
<defs>
<clipPath id="clip0_531_310">
<rect width="10" height="14" fill="white" transform="translate(0 0.160034)"/>
</clipPath>
</defs>
</svg>
