<svg width="26" height="22" viewBox="0 0 26 22" fill="none" xmlns="http://www.w3.org/2000/svg">
<path d="M17.806 5.114C17.5924 5.114 17.3836 5.17734 17.206 5.29601C17.0284 5.41468 16.89 5.58336 16.8082 5.7807C16.7265 5.97805 16.7051 6.1952 16.7468 6.4047C16.7884 6.6142 16.8913 6.80663 17.0423 6.95768C17.1934 7.10872 17.3858 7.21158 17.5953 7.25325C17.8048 7.29492 18.022 7.27353 18.2193 7.19179C18.4166 7.11005 18.5853 6.97162 18.704 6.79402C18.8227 6.61641 18.886 6.4076 18.886 6.194C18.886 5.90757 18.7722 5.63286 18.5697 5.43032C18.3671 5.22779 18.0924 5.114 17.806 5.114ZM21.946 7.292C21.9285 6.54527 21.7886 5.80646 21.532 5.105C21.3032 4.50482 20.947 3.96135 20.488 3.512C20.0423 3.05068 19.4976 2.69676 18.895 2.477C18.1954 2.21254 17.4558 2.06949 16.708 2.054C15.754 2 15.448 2 13 2C10.552 2 10.246 2 9.292 2.054C8.54424 2.06949 7.80461 2.21254 7.105 2.477C6.50351 2.69898 5.95924 3.0526 5.512 3.512C5.05068 3.95766 4.69676 4.5024 4.477 5.105C4.21254 5.80461 4.06949 6.54424 4.054 7.292C4 8.246 4 8.552 4 11C4 13.448 4 13.754 4.054 14.708C4.06949 15.4558 4.21254 16.1954 4.477 16.895C4.69676 17.4976 5.05068 18.0423 5.512 18.488C5.95924 18.9474 6.50351 19.301 7.105 19.523C7.80461 19.7875 8.54424 19.9305 9.292 19.946C10.246 20 10.552 20 13 20C15.448 20 15.754 20 16.708 19.946C17.4558 19.9305 18.1954 19.7875 18.895 19.523C19.4976 19.3032 20.0423 18.9493 20.488 18.488C20.949 18.0403 21.3055 17.4964 21.532 16.895C21.7886 16.1935 21.9285 15.4547 21.946 14.708C21.946 13.754 22 13.448 22 11C22 8.552 22 8.246 21.946 7.292ZM20.326 14.6C20.3194 15.1713 20.216 15.7373 20.02 16.274C19.8763 16.6657 19.6455 17.0196 19.345 17.309C19.0531 17.6065 18.6999 17.8368 18.31 17.984C17.7733 18.18 17.2073 18.2834 16.636 18.29C15.736 18.335 15.403 18.344 13.036 18.344C10.669 18.344 10.336 18.344 9.436 18.29C8.8428 18.3011 8.25214 18.2098 7.69 18.02C7.3172 17.8653 6.98022 17.6355 6.7 17.345C6.40128 17.0559 6.17336 16.7017 6.034 16.31C5.81427 15.7656 5.6924 15.1867 5.674 14.6C5.674 13.7 5.62 13.367 5.62 11C5.62 8.633 5.62 8.3 5.674 7.4C5.67803 6.81595 5.78466 6.23715 5.989 5.69C6.14744 5.31012 6.39064 4.97149 6.7 4.7C6.97343 4.39055 7.31136 4.14479 7.69 3.98C8.2386 3.78204 8.8168 3.67857 9.4 3.674C10.3 3.674 10.633 3.62 13 3.62C15.367 3.62 15.7 3.62 16.6 3.674C17.1713 3.68055 17.7373 3.78402 18.274 3.98C18.683 4.13179 19.0501 4.37856 19.345 4.7C19.6399 4.97646 19.8704 5.31446 20.02 5.69C20.22 6.23804 20.3236 6.8166 20.326 7.4C20.371 8.3 20.38 8.633 20.38 11C20.38 13.367 20.371 13.7 20.326 14.6ZM13 6.383C12.0872 6.38478 11.1955 6.65707 10.4374 7.16548C9.67931 7.67388 9.08894 8.39558 8.74087 9.23938C8.3928 10.0832 8.30265 11.0112 8.48181 11.9062C8.66098 12.8013 9.10141 13.6231 9.74747 14.2679C10.3935 14.9127 11.2162 15.3515 12.1116 15.5289C13.0069 15.7064 13.9348 15.6144 14.7779 15.2647C15.621 14.915 16.3416 14.3232 16.8485 13.5641C17.3554 12.8051 17.626 11.9128 17.626 11C17.6272 10.3926 17.5083 9.79095 17.2761 9.22966C17.0439 8.66838 16.7031 8.15853 16.2732 7.72945C15.8433 7.30036 15.3328 6.96051 14.771 6.72944C14.2093 6.49836 13.6074 6.38063 13 6.383ZM13 13.997C12.4072 13.997 11.8278 13.8212 11.335 13.4919C10.8421 13.1626 10.458 12.6945 10.2311 12.1469C10.0043 11.5993 9.94495 10.9967 10.0606 10.4153C10.1762 9.83395 10.4617 9.29994 10.8808 8.8808C11.2999 8.46166 11.834 8.17623 12.4153 8.06059C12.9967 7.94495 13.5993 8.0043 14.1469 8.23113C14.6945 8.45797 15.1626 8.8421 15.4919 9.33496C15.8212 9.82781 15.997 10.4072 15.997 11C15.997 11.3936 15.9195 11.7833 15.7689 12.1469C15.6183 12.5105 15.3975 12.8409 15.1192 13.1192C14.8409 13.3975 14.5105 13.6183 14.1469 13.7689C13.7833 13.9195 13.3936 13.997 13 13.997Z" fill="#575757"/>
</svg>
